inDegrees=yes
name=ik_lifting_orientations
DataType=double
version=3
OpenSimVersion=4.5-2024-01-10-34fd6af
endheader
time	pelvis_tilt	pelvis_list	pelvis_rotation	pelvis_tx	pelvis_ty	pelvis_tz	hip_flexion_r	hip_adduction_r	hip_rotation_r	knee_angle_r	knee_angle_r_beta	ankle_angle_r	subtalar_angle_r	mtp_angle_r	hip_flexion_l	hip_adduction_l	hip_rotation_l	knee_angle_l	knee_angle_l_beta	ankle_angle_l	subtalar_angle_l	mtp_angle_l	lumbar_extension	lumbar_bending	lumbar_rotation	arm_flex_r	arm_add_r	arm_rot_r	elbow_flex_r	pro_sup_r	wrist_flex_r	wrist_dev_r	arm_flex_l	arm_add_l	arm_rot_l	elbow_flex_l	pro_sup_l	wrist_flex_l	wrist_dev_l
1.07	-6.283501132690761	4.866162651245509	21.79204022836085	0	0.9399999998679526	0	44.57896364518511	-10.01170008997542	0	60.23193462740318	1.05124557409417	-4.992207800680885	0	0	44.57896364518511	-10.01170008997542	0	60.23193462740318	1.05124557409417	-4.992207800680885	0	0	7.33867860821234	-8.136091627403147	-6.790968697118777	37.22676297252076	-43.74165911429491	27.87510826936241	39.63320526408703	-0.2016469937882586	0	0	0	-13.56014524795039	0	90.32148549212742	-0.2016469937882586	0	0
1.08	-6.778212000277586	4.512859283028032	22.62522395121719	0	0.9399999998679526	0	44.57931655351373	-10.01166573989727	0	60.23178253452205	1.051242919572625	-4.992237650190954	0	0	44.57931655351373	-10.01166573989727	0	60.23178253452205	1.051242919572625	-4.992237650190954	0	0	6.787934627268569	-8.560478653405463	-7.82660049188484	42.34030524491117	-42.74960687468609	30.73214527063651	37.49816780516916	-0.2015295797174196	0	0	0	-13.56076208873727	0	90.32129815527574	-0.2015295797174196	0	0
1.09	-7.311937990645101	3.678514323288564	22.25849893606541	0	0.9399999998679526	0	44.57967033812272	-10.01163136037815	0	60.23163008978992	1.051240258910122	-4.992267501506954	0	0	44.57967033812272	-10.01163136037815	0	60.23163008978992	1.051240258910122	-4.992267501506954	0	0	7.407587236302532	-7.965882426406337	-6.717962496102438	44.60238752446396	-43.54996176135212	31.07225981878192	37.04185666561497	-0.2014118601336629	0	0	0	-13.56138055927005	0	90.32111033097269	-0.2014118601336629	0	0
1.1	-7.309472769077026	3.673260756278967	22.25459191951281	0	0.9399999998679526	0	44.58000846969311	-10.01159858418452	0	60.2314843157176	1.051237714672596	-4.992295932939712	0	0	44.58000846969311	-10.01159858418452	0	60.2314843157176	1.051237714672596	-4.992295932939712	0	0	7.409429261638405	-7.963465280014476	-6.720496798506611	47.14773461119815	-42.54283070489124	33.11382542645809	35.07477323950575	-0.2012993061878168	0	0	0	-13.56197204444033	0	90.32093074856773	-0.2012993061878168	0	0
1.11	-7.325461626630502	3.695378964280055	22.25735387537437	0	0.9399999998679526	0	44.58024917456693	-10.01157531278574	0	60.23138044438954	1.051235901775923	-4.992316101767253	0	0	44.58024917456693	-10.01157531278574	0	60.23138044438954	1.051235901775923	-4.992316101767253	0	0	7.430529147687261	-8.003810831428872	-6.722899575531111	48.72457981478782	-41.03392983509599	33.88589447112545	33.01076653414706	-0.2012191415206048	0	0	0	-13.56239348459841	0	90.32080284400435	-0.2012191415206048	0	0
1.12	-5.937515421763098	3.891983635014274	22.97855189604735	0	0.9399999998679526	0	44.58057684806737	-10.01154366426718	0	60.23123910737478	1.05123343497966	-4.992343514580856	0	0	44.58057684806737	-10.01154366426718	0	60.23123910737478	1.05123343497966	-4.992343514580856	0	0	5.945330986746079	-7.735562937605168	-7.573789994239108	50.86440289219208	-40.70422270589211	34.84977839714572	32.06546037160763	-0.201110014986095	0	0	0	-13.56296714240533	0	90.32062873011807	-0.201110014986095	0	0
1.13	-6.477911832526753	3.069858019702262	22.61396565614535	0	0.9399999998679526	0	44.58084877844038	-10.01151744704663	0	60.23112180030215	1.051231387585007	-4.992366205293147	0	0	44.58084877844038	-10.01151744704663	0	60.23112180030215	1.051231387585007	-4.992366205293147	0	0	6.804848056759979	-7.143949728608219	-7.241562963492568	54.26841600536174	-40.29144011941112	36.93403592208765	30.4300395992983	-0.2010194342156436	0	0	0	-13.56344336404423	0	90.32048420642518	-0.2010194342156436	0	0
1.14	-6.490065992606076	3.08813481351982	22.62516962528782	0	0.9399999998679526	0	44.58446979643501	-10.01127588207974	0	60.22914990687084	1.051196971552132	-4.992558467807733	0	0	44.58446979643501	-10.01127588207974	0	60.22914990687084	1.051196971552132	-4.992558467807733	0	0	6.80752322699067	-7.169621154466534	-7.244707045126741	53.5645774483571	-42.40085773029658	34.39218816174431	33.26262103782588	-0.1996928241977315	0	0	0	-13.57096369852394	0	90.31836758016421	-0.1996928241977315	0	0
1.15	-5.932911810525819	3.904680596473996	22.97840723829144	0	0.9399999998679526	0	44.58481422174884	-10.01124312847951	0	60.22900137012526	1.051194379096862	-4.992586674437527	0	0	44.58481422174884	-10.01124312847951	0	60.22900137012526	1.051194379096862	-4.992586674437527	0	0	5.944473142331882	-7.74249580745318	-7.572966653196763	57.6508708050241	-42.26294619222848	37.58688091523003	31.80167405766559	-0.1995778575980403	0	0	0	-13.57156893127226	0	90.31818414834976	-0.1995778575980403	0	0
1.16	-5.939740410595972	3.898960659552968	22.98425915846352	0	0.9399999998679526	0	44.58511456961378	-10.01121463329056	0	60.22887178249569	1.051192117366056	-4.992611191375511	0	0	44.58511456961378	-10.01121463329056	0	60.22887178249569	1.051192117366056	-4.992611191375511	0	0	5.945484510955261	-7.747643428974354	-7.578824790319409	63.30901881455226	-40.29711540284141	42.0490282097985	28.08462677963526	-0.1994775685894974	0	0	0	-13.57209702015373	0	90.3180241349678	-0.1994775685894974	0	0
1.17	-5.93058510699949	3.912706020122042	22.98202099817396	0	0.9399999998679526	0	44.58536335935727	-10.0111910473579	0	60.22876449302346	1.051190244811513	-4.992631474198156	0	0	44.58536335935727	-10.0111910473579	0	60.22876449302346	1.051190244811513	-4.992631474198156	0	0	6.421100255361146	-8.769912300445931	-7.292201672304824	63.94430096919286	-39.74199242089646	42.54507619405529	27.12542431258134	-0.1993944996846397	0	0	0	-13.57253439438607	0	90.31789159665065	-0.1993944996846397	0	0
1.18	-7.09292988750966	4.860812469082959	23.23656856784623	0	0.9399999998679526	0	44.58565563747577	-10.01116344280164	0	60.22863824195812	1.051188041314738	-4.992655184992044	0	0	44.58565563747577	-10.01116344280164	0	60.22863824195812	1.051188041314738	-4.992655184992044	0	0	7.090555245640678	-10.10455084372908	-7.275723739044894	67.16157724153382	-38.87495806935313	45.22390313753453	24.4035852647509	-0.1992968327737051	0	0	0	-13.57304894549976	0	90.31773576689122	-0.1992968327737051	0	0
1.19	-6.254689019661594	5.342570667889673	22.99557927129032	0	0.9399999998679526	0	44.58588969551185	-10.01114135441474	0	60.2285371626517	1.051186277148036	-4.99267414930831	0	0	44.58588969551185	-10.01114135441474	0	60.2285371626517	1.051186277148036	-4.99267414930831	0	0	6.386718628862109	-10.1740852002556	-7.878012744504304	69.6546635446217	-38.03104290869839	47.0481197781245	23.60153789048206	-0.1992186181758048	0	0	0	-13.57346101155691	0	90.31761097373645	-0.1992186181758048	0	0
1.2	-6.567595534183156	5.688008201731333	23.59231321776932	0	0.9399999998679526	0	44.58655129439972	-10.0110896182923	0	60.22820399209159	1.051180462224791	-4.992717052389248	0	0	44.58655129439972	-10.0110896182923	0	60.22820399209159	1.051180462224791	-4.992717052389248	0	0	6.446241684384852	-10.68361055829144	-8.400495313923084	73.12828022861304	-37.36012678479091	51.11690548679155	22.30972700667193	-0.198984549585775	0	0	0	-13.57475398572156	0	90.31723751314206	-0.198984549585775	0	0
1.21	-6.245474159099651	5.336161957760496	22.97772607234706	0	0.9399999998679526	0	44.5867870870641	-10.01106745454842	0	60.22810218809837	1.051178685409918	-4.992736047912441	0	0	44.5867870870641	-10.01106745454842	0	60.22810218809837	1.051178685409918	-4.992736047912441	0	0	7.427931549176708	-9.712490622393199	-7.59469887521801	76.15721839183266	-37.75787073948198	54.36321276259651	22.82721516474075	-0.1989057228942633	0	0	0	-13.57516936400181	0	90.31711174338176	-0.1989057228942633	0	0
1.22	-6.247266541896824	5.336520805975456	22.99114865309888	0	0.9399999998679526	0	44.58768047737653	-10.01100242129205	0	60.22763824448956	1.0511705880664	-4.992788951798327	0	0	44.58768047737653	-10.01100242129205	0	60.22763824448956	1.0511705880664	-4.992788951798327	0	0	7.899905985656499	-10.72432808807391	-7.287511193193635	79.62439065197181	-35.59610084453062	58.13870647951767	19.97558261121098	-0.1985847215608883	0	0	0	-13.57696295765037	0	90.31659958043613	-0.1985847215608883	0	0
1.23	-6.072403023869115	6.04106625635501	22.76381498514034	0	0.9399999998679526	0	44.58776931095049	-10.01098618624356	0	60.22762305894468	1.051170323028644	-4.992804264240667	0	0	44.58776931095049	-10.01098618624356	0	60.22762305894468	1.051170323028644	-4.992804264240667	0	0	7.51892819319069	-11.26535001066152	-6.992111001032494	82.20644950853611	-35.70848219965401	60.6903542984035	19.11371173483554	-0.1985632018984368	0	0	0	-13.57704033997016	0	90.31656524465835	-0.1985632018984368	0	0
1.24	-6.074584302040129	6.041037119181795	22.76153192332991	0	0.9399999998679526	0	44.58826594213257	-10.01094566820699	0	60.22737904408503	1.051166064165919	-4.992838155274824	0	0	44.58826594213257	-10.01094566820699	0	60.22737904408503	1.051166064165919	-4.992838155274824	0	0	7.526428622929903	-11.27367865562886	-6.99492135190054	86.01616271238444	-33.53993445374821	64.56700202072614	16.1875844000452	-0.1983894274361857	0	0	0	-13.5779920617037	0	90.31628798426692	-0.1983894274361857	0	0
1.25	-6.070994381925225	6.042580603672491	22.75807448919928	0	0.9399999998679526	0	44.58848695768386	-10.0109250698247	0	60.22728359786836	1.051164398315179	-4.992855745334372	0	0	44.58848695768386	-10.0109250698247	0	60.22728359786836	1.051164398315179	-4.992855745334372	0	0	7.518387296281988	-11.2694308440776	-6.985318246733943	87.37011159554534	-32.81400987576519	66.31056791737784	15.38150864771085	-0.1983154638950454	0	0	0	-13.57838205512191	0	90.31616997378035	-0.1983154638950454	0	0
1.26	-6.064809673242325	6.051031279428978	22.75374337118079	0	0.9399999998679526	0	44.58872224821593	-10.01090323845991	0	60.22718171784537	1.051162620173336	-4.992874366562332	0	0	44.58872224821593	-10.01090323845991	0	60.22718171784537	1.051162620173336	-4.992874366562332	0	0	7.514594574355664	-11.27121901092864	-6.991434530288443	87.77951771644703	-30.28808091181914	66.31173194195669	12.22845071650767	-0.198236633450953	0	0	0	-13.57879809844512	0	90.31604419804887	-0.198236633450953	0	0
